<svg xmlns="http://www.w3.org/2000/svg" width="92.7mm" height="10.0mm" viewBox="450.03 353.75 92.65 10.00">
  <path d="M 537.681,358.750 L 537.681,358.750 L 537.681,358.750 L 537.681,358.750 L 534.763,358.750 L 529.541,358.750 L 524.318,358.750 L 519.094,358.750 L 513.871,358.750 L 508.647,358.750 L 503.422,358.750 L 498.197,358.750 L 492.972,358.750 L 487.745,358.750 L 482.519,358.750 L 477.292,358.750 L 472.065,358.750 L 466.838,358.750 L 461.610,358.750 L 456.382,358.750 L 455.031,358.750 L 455.031,358.750 L 455.031,358.750 L 455.031,358.750 L 455.031,358.750 L 459.526,358.750 L 464.753,358.750 L 469.981,358.750 L 475.208,358.750 L 480.433,358.750 L 485.655,358.750 L 490.874,358.750 L 496.089,358.750 L 501.302,358.750 L 506.511,358.750 L 511.716,358.750 L 516.917,358.750 L 522.114,358.750 L 527.308,358.750 L 532.497,358.750 L 537.681,358.750 Z" fill="#e3f2fd" stroke="#d32f2f" stroke-width="0.5"/>
  <text x="455.03" y="363.75" font-family="sans-serif" font-size="4" fill="#1976d2">RIB-R-003</text>
</svg>