<svg xmlns="http://www.w3.org/2000/svg" width="92.6mm" height="10.0mm" viewBox="450.03 -363.75 92.65 10.00">
  <path d="M 455.031,-358.750 L 460.257,-358.750 L 465.484,-358.750 L 470.712,-358.750 L 475.938,-358.750 L 481.163,-358.750 L 486.385,-358.750 L 491.603,-358.750 L 496.818,-358.750 L 502.030,-358.750 L 507.239,-358.750 L 512.443,-358.750 L 517.644,-358.750 L 522.841,-358.750 L 528.033,-358.750 L 533.222,-358.750 L 537.681,-358.750 L 537.681,-358.750 L 537.681,-358.750 L 537.681,-358.750 L 534.033,-358.750 L 528.810,-358.750 L 523.587,-358.750 L 518.364,-358.750 L 513.140,-358.750 L 507.916,-358.750 L 502.692,-358.750 L 497.467,-358.750 L 492.241,-358.750 L 487.015,-358.750 L 481.788,-358.750 L 476.561,-358.750 L 471.334,-358.750 L 466.107,-358.750 L 460.879,-358.750 L 455.651,-358.750 L 455.031,-358.750 L 455.031,-358.750 L 455.031,-358.750 L 455.031,-358.750 L 455.031,-358.750 Z" fill="#e3f2fd" stroke="#d32f2f" stroke-width="0.5"/>
  <text x="455.03" y="-353.75" font-family="sans-serif" font-size="4" fill="#1976d2">RIB-L-003</text>
</svg>